<?xml version="1.0" encoding="UTF-8"?>
<svg height="128px" viewBox="0 0 128 128" width="128px" xmlns="http://www.w3.org/2000/svg" xmlns:xlink="http://www.w3.org/1999/xlink">
    <clipPath id="a">
        <path d="m 41.074219 70.246094 h 46 v 52 h -46 z m 0 0"/>
    </clipPath>
    <clipPath id="b">
        <path d="m 40.476562 54.585938 h 47.421876 v 68.484374 h -47.421876 z m 35.910157 42.734374 c 0 -6.742187 -5.453125 -12.210937 -12.183594 -12.210937 c -6.726563 0 -12.183594 5.46875 -12.183594 12.210937 c 0 6.742188 5.457031 12.210938 12.183594 12.210938 c 6.730469 0 12.183594 -5.46875 12.183594 -12.210938 z m 0 0"/>
    </clipPath>
    <linearGradient id="c" gradientTransform="matrix(0.164687 0 0 0.165054 -25.0367 -9.590688)" gradientUnits="userSpaceOnUse" x1="403.496033" x2="678.908813" y1="793.565552" y2="793.565552">
        <stop offset="0" stop-color="#9a9996"/>
        <stop offset="0.0414257" stop-color="#c0bfbc"/>
        <stop offset="0.0815191" stop-color="#9a9996"/>
        <stop offset="0.899024" stop-color="#77767b"/>
        <stop offset="0.952865" stop-color="#c0bfbc"/>
        <stop offset="1" stop-color="#77767b"/>
    </linearGradient>
    <clipPath id="d">
        <path d="m 41.074219 68.246094 h 46 v 52 h -46 z m 0 0"/>
    </clipPath>
    <clipPath id="e">
        <path d="m 40.476562 54.585938 h 47.421876 v 68.484374 h -47.421876 z m 35.910157 42.734374 c 0 -6.742187 -5.453125 -12.210937 -12.183594 -12.210937 c -6.726563 0 -12.183594 5.46875 -12.183594 12.210937 c 0 6.742188 5.457031 12.210938 12.183594 12.210938 c 6.730469 0 12.183594 -5.46875 12.183594 -12.210938 z m 0 0"/>
    </clipPath>
    <clipPath id="f">
        <path d="m 41.074219 55.246094 h 46 v 53.753906 h -46 z m 0 0"/>
    </clipPath>
    <clipPath id="g">
        <path d="m 40.476562 54.585938 h 47.421876 v 68.484374 h -47.421876 z m 35.910157 42.734374 c 0 -6.742187 -5.453125 -12.210937 -12.183594 -12.210937 c -6.726563 0 -12.183594 5.46875 -12.183594 12.210937 c 0 6.742188 5.457031 12.210938 12.183594 12.210938 c 6.730469 0 12.183594 -5.46875 12.183594 -12.210938 z m 0 0"/>
    </clipPath>
    <linearGradient id="h" gradientTransform="matrix(0.299808 0 0 0.300475 -270.511087 35.399302)" gradientUnits="userSpaceOnUse" x1="928.741516" x2="1302.490479" y1="216.638611" y2="216.638611">
        <stop offset="0" stop-color="#3d3846"/>
        <stop offset="0.0279595" stop-color="#79718e"/>
        <stop offset="0.0654033" stop-color="#4e475a"/>
        <stop offset="0.938181" stop-color="#716881"/>
        <stop offset="0.971878" stop-color="#847a96"/>
        <stop offset="1" stop-color="#3d3846"/>
    </linearGradient>
    <linearGradient id="i" gradientTransform="matrix(0.45451 0 0 0.455522 -1210.2176 616.416803)" gradientUnits="userSpaceOnUse" x1="2704.463135" x2="2868.168457" y1="-1148.187378" y2="-1311.529175">
        <stop offset="0" stop-color="#1c71d8"/>
        <stop offset="1" stop-color="#62a0ea"/>
    </linearGradient>
    <linearGradient id="j" gradientUnits="userSpaceOnUse" x1="29.167851" x2="98.981569" y1="56.244165" y2="56.244165">
        <stop offset="0" stop-color="#acccf6"/>
        <stop offset="1" stop-color="#aacaf6"/>
    </linearGradient>
    <clipPath id="k">
        <path d="m 41.074219 70.246094 h 46 v 52 h -46 z m 0 0"/>
    </clipPath>
    <clipPath id="l">
        <path d="m 40.476562 54.585938 h 47.421876 v 68.484374 h -47.421876 z m 35.910157 42.734374 c 0 -6.742187 -5.453125 -12.210937 -12.183594 -12.210937 c -6.726563 0 -12.183594 5.46875 -12.183594 12.210937 c 0 6.742188 5.457031 12.210938 12.183594 12.210938 c 6.730469 0 12.183594 -5.46875 12.183594 -12.210938 z m 0 0"/>
    </clipPath>
    <clipPath id="m">
        <path d="m 41.074219 68.246094 h 46 v 52 h -46 z m 0 0"/>
    </clipPath>
    <clipPath id="n">
        <path d="m 40.476562 54.585938 h 47.421876 v 68.484374 h -47.421876 z m 35.910157 42.734374 c 0 -6.742187 -5.453125 -12.210937 -12.183594 -12.210937 c -6.726563 0 -12.183594 5.46875 -12.183594 12.210937 c 0 6.742188 5.457031 12.210938 12.183594 12.210938 c 6.730469 0 12.183594 -5.46875 12.183594 -12.210938 z m 0 0"/>
    </clipPath>
    <clipPath id="o">
        <path d="m 41.074219 55.246094 h 46 v 53.753906 h -46 z m 0 0"/>
    </clipPath>
    <clipPath id="p">
        <path d="m 40.476562 54.585938 h 47.421876 v 68.484374 h -47.421876 z m 35.910157 42.734374 c 0 -6.742187 -5.453125 -12.210937 -12.183594 -12.210937 c -6.726563 0 -12.183594 5.46875 -12.183594 12.210937 c 0 6.742188 5.457031 12.210938 12.183594 12.210938 c 6.730469 0 12.183594 -5.46875 12.183594 -12.210938 z m 0 0"/>
    </clipPath>
    <clipPath id="q">
        <rect height="128" width="128"/>
    </clipPath>
    <clipPath id="r">
        <rect height="128" width="128"/>
    </clipPath>
    <filter id="s" height="100%" width="100%" x="0%" y="0%">
        <feColorMatrix in="SourceGraphic" type="matrix" values="0 0 0 0 1 0 0 0 0 1 0 0 0 0 1 0 0 0 1 0"/>
    </filter>
    <mask id="t">
        <g clip-path="url(#r)" filter="url(#s)">
            <g clip-path="url(#q)">
                <g clip-path="url(#k)">
                    <g clip-path="url(#l)">
                        <path d="m 44.738281 70.972656 h 38.898438 c 1.902343 0 3.4375 1.523438 3.4375 3.414063 v 44.445312 c 0 1.890625 -1.535157 3.414063 -3.4375 3.414063 h -38.898438 c -1.902343 0 -3.4375 -1.523438 -3.4375 -3.414063 v -44.445312 c 0 -1.890625 1.535157 -3.414063 3.4375 -3.414063 z m 0 0" fill="url(#c)"/>
                    </g>
                </g>
                <g clip-path="url(#m)">
                    <g clip-path="url(#n)">
                        <path d="m 44.738281 68.972656 h 38.898438 c 1.902343 0 3.4375 1.523438 3.4375 3.414063 v 44.445312 c 0 1.890625 -1.535157 3.414063 -3.4375 3.414063 h -38.898438 c -1.902343 0 -3.4375 -1.523438 -3.4375 -3.414063 v -44.445312 c 0 -1.890625 1.535157 -3.414063 3.4375 -3.414063 z m 0 0" fill="#77767b"/>
                    </g>
                </g>
                <g clip-path="url(#o)">
                    <g clip-path="url(#p)">
                        <path d="m 41.300781 55.410156 h 45.773438 v 53.414063 h -45.773438 z m 0 0" fill="#434348" fill-opacity="0.509804"/>
                    </g>
                </g>
                <path d="m 120.074219 21.859375 v 72.773437 c 0 5.308594 -4.296875 9.613282 -9.59375 9.613282 h -92.8125 c -5.296875 0 -9.59375 -4.304688 -9.59375 -9.613282 v -72.773437 c 0 -5.308594 4.296875 -9.613281 9.59375 -9.613281 h 92.8125 c 5.296875 0 9.59375 4.304687 9.59375 9.613281 z m 0 0" fill="url(#h)"/>
                <path d="m 120.074219 21.859375 v 68.773437 c 0 5.308594 -4.296875 9.613282 -9.59375 9.613282 h -92.8125 c -5.296875 0 -9.59375 -4.304688 -9.59375 -9.613282 v -68.773437 c 0 -5.308594 4.296875 -9.613281 9.59375 -9.613281 h 92.8125 c 5.296875 0 9.59375 4.304687 9.59375 9.613281 z m 0 0" fill="#241f31"/>
                <path d="m 17.453125 14.246094 h 93.242187 c 4.074219 0 7.378907 3.3125 7.378907 7.394531 v 69.210937 c 0 4.082032 -3.304688 7.394532 -7.378907 7.394532 h -93.242187 c -4.074219 0 -7.378906 -3.3125 -7.378906 -7.394532 v -69.210937 c 0 -4.082031 3.304687 -7.394531 7.378906 -7.394531 z m 0 0" fill="url(#i)"/>
                <path d="m 73.59375 49.898438 v 6.347656 h 6.347656 v -6.347656 z m -25.386719 0 v 6.347656 h 6.347657 v -6.347656 z m 0 25.386718 h 12.695313 v 6.347656 h -12.695313 z m 31.734375 0 v 6.347656 h -12.691406 v -6.347656 z m 0 -38.082031 v -6.347656 h 6.347656 v 6.347656 z m -31.734375 0 h 6.347657 v 6.347656 h 19.039062 v -6.347656 h 6.347656 v 6.347656 h 6.347656 v 6.347657 h 6.347657 v 6.347656 h 6.34375 v 19.039062 h -6.34375 v -12.695312 h -6.347657 v 12.695312 h -6.347656 v -6.347656 h -31.734375 v 6.347656 h -6.347656 v -12.695312 h -6.34375 v 12.695312 h -6.347656 v -19.039062 h 6.347656 v -6.347656 h 6.34375 v -6.347657 h 6.347656 z m -6.347656 -6.347656 h 6.347656 v 6.347656 h -6.347656 z m 0 0" fill="url(#j)" fill-rule="evenodd"/>
            </g>
        </g>
    </mask>
    <mask id="u">
        <g filter="url(#s)">
            <rect fill-opacity="0.8" height="128" width="128"/>
        </g>
    </mask>
    <linearGradient id="v" gradientTransform="matrix(0 0.37 -0.98462 0 295.38501 -30.360001)" gradientUnits="userSpaceOnUse" x1="300" x2="428" y1="235" y2="235">
        <stop offset="0" stop-color="#f9f06b"/>
        <stop offset="1" stop-color="#f5c211"/>
    </linearGradient>
    <clipPath id="w">
        <rect height="128" width="128"/>
    </clipPath>
    <clipPath id="x">
        <rect height="128" width="128"/>
    </clipPath>
    <g clip-path="url(#a)">
        <g clip-path="url(#b)">
            <path d="m 44.738281 70.972656 h 38.898438 c 1.902343 0 3.4375 1.523438 3.4375 3.414063 v 44.445312 c 0 1.890625 -1.535157 3.414063 -3.4375 3.414063 h -38.898438 c -1.902343 0 -3.4375 -1.523438 -3.4375 -3.414063 v -44.445312 c 0 -1.890625 1.535157 -3.414063 3.4375 -3.414063 z m 0 0" fill="url(#c)"/>
        </g>
    </g>
    <g clip-path="url(#d)">
        <g clip-path="url(#e)">
            <path d="m 44.738281 68.972656 h 38.898438 c 1.902343 0 3.4375 1.523438 3.4375 3.414063 v 44.445312 c 0 1.890625 -1.535157 3.414063 -3.4375 3.414063 h -38.898438 c -1.902343 0 -3.4375 -1.523438 -3.4375 -3.414063 v -44.445312 c 0 -1.890625 1.535157 -3.414063 3.4375 -3.414063 z m 0 0" fill="#77767b"/>
        </g>
    </g>
    <g clip-path="url(#f)">
        <g clip-path="url(#g)">
            <path d="m 41.300781 55.410156 h 45.773438 v 53.414063 h -45.773438 z m 0 0" fill="#434348" fill-opacity="0.509804"/>
        </g>
    </g>
    <path d="m 120.074219 21.859375 v 72.773437 c 0 5.308594 -4.296875 9.613282 -9.59375 9.613282 h -92.8125 c -5.296875 0 -9.59375 -4.304688 -9.59375 -9.613282 v -72.773437 c 0 -5.308594 4.296875 -9.613281 9.59375 -9.613281 h 92.8125 c 5.296875 0 9.59375 4.304687 9.59375 9.613281 z m 0 0" fill="url(#h)"/>
    <path d="m 120.074219 21.859375 v 68.773437 c 0 5.308594 -4.296875 9.613282 -9.59375 9.613282 h -92.8125 c -5.296875 0 -9.59375 -4.304688 -9.59375 -9.613282 v -68.773437 c 0 -5.308594 4.296875 -9.613281 9.59375 -9.613281 h 92.8125 c 5.296875 0 9.59375 4.304687 9.59375 9.613281 z m 0 0" fill="#241f31"/>
    <path d="m 17.453125 14.246094 h 93.242187 c 4.074219 0 7.378907 3.3125 7.378907 7.394531 v 69.210937 c 0 4.082032 -3.304688 7.394532 -7.378907 7.394532 h -93.242187 c -4.074219 0 -7.378906 -3.3125 -7.378906 -7.394532 v -69.210937 c 0 -4.082031 3.304687 -7.394531 7.378906 -7.394531 z m 0 0" fill="url(#i)"/>
    <path d="m 73.59375 49.898438 v 6.347656 h 6.347656 v -6.347656 z m -25.386719 0 v 6.347656 h 6.347657 v -6.347656 z m 0 25.386718 h 12.695313 v 6.347656 h -12.695313 z m 31.734375 0 v 6.347656 h -12.691406 v -6.347656 z m 0 -38.082031 v -6.347656 h 6.347656 v 6.347656 z m -31.734375 0 h 6.347657 v 6.347656 h 19.039062 v -6.347656 h 6.347656 v 6.347656 h 6.347656 v 6.347657 h 6.347657 v 6.347656 h 6.34375 v 19.039062 h -6.34375 v -12.695312 h -6.347657 v 12.695312 h -6.347656 v -6.347656 h -31.734375 v 6.347656 h -6.347656 v -12.695312 h -6.34375 v 12.695312 h -6.347656 v -19.039062 h 6.347656 v -6.347656 h 6.34375 v -6.347657 h 6.347656 z m -6.347656 -6.347656 h 6.347656 v 6.347656 h -6.347656 z m 0 0" fill="url(#j)" fill-rule="evenodd"/>
    <g clip-path="url(#x)" mask="url(#t)">
        <g clip-path="url(#w)" mask="url(#u)">
            <path d="m 128 80.640625 v 47.359375 h -128 v -47.359375 z m 0 0" fill="url(#v)"/>
            <path d="m 13.308594 80.640625 l 47.355468 47.359375 h 21.214844 l -47.359375 -47.359375 z m 42.421875 0 l 47.363281 47.359375 h 21.214844 l -47.363282 -47.359375 z m 42.429687 0 l 29.839844 29.839844 v -21.210938 l -8.628906 -8.628906 z m -98.160156 7.90625 v 21.214844 l 18.238281 18.238281 h 21.214844 z m 0 0"/>
        </g>
    </g>
</svg>
