<?xml version="1.0" encoding="UTF-8" standalone="no"?>
<svg
   height="128px"
   viewBox="0 0 128 128"
   width="128px"
   version="1.1"
   id="svg75"
   sodipodi:docname="pixels.svg"
   xml:space="preserve"
   inkscape:version="1.2.2 (b0a8486541, 2022-12-01)"
   xmlns:inkscape="http://www.inkscape.org/namespaces/inkscape"
   xmlns:sodipodi="http://sodipodi.sourceforge.net/DTD/sodipodi-0.dtd"
   xmlns:xlink="http://www.w3.org/1999/xlink"
   xmlns="http://www.w3.org/2000/svg"
   xmlns:svg="http://www.w3.org/2000/svg"><defs
     id="defs79"><linearGradient
       inkscape:collect="always"
       id="linearGradient2402"><stop
         style="stop-color:#acccf6;stop-opacity:1;"
         offset="0"
         id="stop2398" /><stop
         style="stop-color:#aacaf6;stop-opacity:1;"
         offset="1"
         id="stop2400" /></linearGradient><linearGradient
       inkscape:collect="always"
       xlink:href="#linearGradient2402"
       id="linearGradient2404"
       x1="29.093142"
       y1="63.999999"
       x2="98.906858"
       y2="63.999999"
       gradientUnits="userSpaceOnUse"
       gradientTransform="translate(0,-8)" /><radialGradient
       id="f-9"
       cx="106.66667"
       cy="-60.347851"
       gradientTransform="matrix(0.459727,0,0,0.293926,28.939721,42.655758)"
       gradientUnits="userSpaceOnUse"
       r="225"><stop
         offset="0"
         stop-color="#50dbb5"
         id="stop5996" /><stop
         offset="1"
         stop-color="#4a86cf"
         id="stop5998" /></radialGradient></defs><sodipodi:namedview
     id="namedview77"
     pagecolor="#ffffff"
     bordercolor="#000000"
     borderopacity="0.25"
     inkscape:showpageshadow="2"
     inkscape:pageopacity="0.0"
     inkscape:pagecheckerboard="0"
     inkscape:deskcolor="#d1d1d1"
     showgrid="false"
     inkscape:zoom="8.0234375"
     inkscape:cx="31.345667"
     inkscape:cy="61.694255"
     inkscape:window-width="3072"
     inkscape:window-height="1659"
     inkscape:window-x="0"
     inkscape:window-y="0"
     inkscape:window-maximized="1"
     inkscape:current-layer="svg75" /><clipPath
     id="a"><path
       d="m 41 70 h 46 v 52 h -46 z m 0 0"
       id="path2" /></clipPath><clipPath
     id="b"><path
       d="m 40.402344 54.339844 h 47.421875 v 68.484375 h -47.421875 z m 35.910156 42.734375 c 0 -6.742188 -5.453125 -12.210938 -12.183594 -12.210938 c -6.726562 0 -12.183594 5.46875 -12.183594 12.210938 c 0 6.742187 5.457032 12.210937 12.183594 12.210937 c 6.730469 0 12.183594 -5.46875 12.183594 -12.210937 z m 0 0"
       id="path5" /></clipPath><linearGradient
     id="c"
     gradientTransform="matrix(0.164687 0 0 0.165054 -25.111408 -9.834853)"
     gradientUnits="userSpaceOnUse"
     x1="403.496033"
     x2="678.908813"
     y1="793.565552"
     y2="793.565552"><stop
       offset="0"
       stop-color="#9a9996"
       id="stop8" /><stop
       offset="0.0414257"
       stop-color="#c0bfbc"
       id="stop10" /><stop
       offset="0.0815191"
       stop-color="#9a9996"
       id="stop12" /><stop
       offset="0.899024"
       stop-color="#77767b"
       id="stop14" /><stop
       offset="0.952865"
       stop-color="#c0bfbc"
       id="stop16" /><stop
       offset="1"
       stop-color="#77767b"
       id="stop18" /></linearGradient><clipPath
     id="d"><path
       d="m 41 68 h 46 v 52 h -46 z m 0 0"
       id="path21" /></clipPath><clipPath
     id="e"><path
       d="m 40.402344 54.339844 h 47.421875 v 68.484375 h -47.421875 z m 35.910156 42.734375 c 0 -6.742188 -5.453125 -12.210938 -12.183594 -12.210938 c -6.726562 0 -12.183594 5.46875 -12.183594 12.210938 c 0 6.742187 5.457032 12.210937 12.183594 12.210937 c 6.730469 0 12.183594 -5.46875 12.183594 -12.210937 z m 0 0"
       id="path24" /></clipPath><clipPath
     id="f"><path
       d="m 41 55 h 46 v 54 h -46 z m 0 0"
       id="path27" /></clipPath><clipPath
     id="g"><path
       d="m 40.402344 54.339844 h 47.421875 v 68.484375 h -47.421875 z m 35.910156 42.734375 c 0 -6.742188 -5.453125 -12.210938 -12.183594 -12.210938 c -6.726562 0 -12.183594 5.46875 -12.183594 12.210938 c 0 6.742187 5.457032 12.210937 12.183594 12.210937 c 6.730469 0 12.183594 -5.46875 12.183594 -12.210937 z m 0 0"
       id="path30" /></clipPath><linearGradient
     id="h"
     gradientTransform="matrix(0.299808 0 0 0.300475 -270.58579 35.155126)"
     gradientUnits="userSpaceOnUse"
     x1="928.741516"
     x2="1302.490479"
     y1="216.638611"
     y2="216.638611"><stop
       offset="0"
       stop-color="#3d3846"
       id="stop33" /><stop
       offset="0.0279595"
       stop-color="#79718e"
       id="stop35" /><stop
       offset="0.0654033"
       stop-color="#4e475a"
       id="stop37" /><stop
       offset="0.938181"
       stop-color="#716881"
       id="stop39" /><stop
       offset="0.971878"
       stop-color="#847a96"
       id="stop41" /><stop
       offset="1"
       stop-color="#3d3846"
       id="stop43" /></linearGradient><linearGradient
     id="i"
     gradientTransform="matrix(0.45451 0 0 0.455522 -1210.292114 616.172607)"
     gradientUnits="userSpaceOnUse"
     x1="2704.463135"
     x2="2868.168457"
     y1="-1148.187378"
     y2="-1311.529175"><stop
       offset="0"
       stop-color="#1c71d8"
       id="stop46" /><stop
       offset="1"
       stop-color="#62a0ea"
       id="stop48" /></linearGradient><g
     clip-path="url(#a)"
     id="g55"><g
       clip-path="url(#b)"
       id="g53"><path
         d="m 44.664062 70.726562 h 38.898438 c 1.902344 0 3.4375 1.523438 3.4375 3.414063 v 44.445313 c 0 1.890624 -1.535156 3.414062 -3.4375 3.414062 h -38.898438 c -1.902343 0 -3.4375 -1.523438 -3.4375 -3.414062 v -44.445313 c 0 -1.890625 1.535157 -3.414063 3.4375 -3.414063 z m 0 0"
         fill="url(#c)"
         id="path51" /></g></g><g
     clip-path="url(#d)"
     id="g61"><g
       clip-path="url(#e)"
       id="g59"><path
         d="m 44.664062 68.726562 h 38.898438 c 1.902344 0 3.4375 1.523438 3.4375 3.414063 v 44.445313 c 0 1.890624 -1.535156 3.414062 -3.4375 3.414062 h -38.898438 c -1.902343 0 -3.4375 -1.523438 -3.4375 -3.414062 v -44.445313 c 0 -1.890625 1.535157 -3.414063 3.4375 -3.414063 z m 0 0"
         fill="#77767b"
         id="path57" /></g></g><g
     clip-path="url(#f)"
     id="g67"><g
       clip-path="url(#g)"
       id="g65"><path
         d="m 41.226562 55.164062 h 45.773438 v 53.414063 h -45.773438 z m 0 0"
         fill="#434348"
         fill-opacity="0.509804"
         id="path63" /></g></g><path
     d="m 120 21.613281 v 72.773438 c 0 5.308593 -4.296875 9.613281 -9.59375 9.613281 h -92.8125 c -5.296875 0 -9.59375 -4.304688 -9.59375 -9.613281 v -72.773438 c 0 -5.308593 4.296875 -9.613281 9.59375 -9.613281 h 92.8125 c 5.296875 0 9.59375 4.304688 9.59375 9.613281 z m 0 0"
     fill="url(#h)"
     id="path69" /><path
     d="m 120 21.613281 v 68.773438 c 0 5.308593 -4.296875 9.613281 -9.59375 9.613281 h -92.8125 c -5.296875 0 -9.59375 -4.304688 -9.59375 -9.613281 v -68.773438 c 0 -5.308593 4.296875 -9.613281 9.59375 -9.613281 h 92.8125 c 5.296875 0 9.59375 4.304688 9.59375 9.613281 z m 0 0"
     fill="#241f31"
     id="path71" /><path
     d="m 17.378906 14 h 93.242188 c 4.074218 0 7.378906 3.3125 7.378906 7.394531 v 69.210938 c 0 4.082031 -3.304688 7.394531 -7.378906 7.394531 h -93.242188 c -4.074218 0 -7.378906 -3.3125 -7.378906 -7.394531 v -69.210938 c 0 -4.082031 3.304688 -7.394531 7.378906 -7.394531 z m 0 0"
     fill="url(#i)"
     id="path73" /><path
     style="fill:url(#linearGradient2404);fill-opacity:1;fill-rule:evenodd;stroke-width:0;stroke-miterlimit:4"
     id="path5222"
     stroke-miterlimit="4"
     d="m 73.520051,49.6533 v 6.346701 h 6.346701 V 49.6533 Z m -25.386805,0 v 6.346701 h 6.346701 V 49.6533 Z m 0,25.386801 h 12.693402 v 6.346701 H 48.133246 Z m 31.733506,0 v 6.346701 H 67.173349 v -6.346701 z m 0,-38.080202 v -6.346702 h 6.346701 v 6.346702 z m -31.733506,0 h 6.346701 V 43.3066 h 19.040104 v -6.346701 h 6.346701 V 43.3066 h 6.346701 v 6.346701 h 6.346703 v 6.346701 h 6.346702 v 19.0401 H 92.560156 V 62.346703 H 86.213453 V 75.040101 H 79.866752 V 68.693404 H 48.133246 v 6.346697 H 41.786544 V 62.346703 h -6.346701 v 12.693398 h -6.346701 v -19.0401 h 6.346701 V 49.6533 h 6.346701 v -6.346701 h 6.346702 z m -6.346702,-6.346702 h 6.346702 v 6.346702 h -6.346702 z" /></svg>
